<svg id="Layer_1" data-name="Layer 1" xmlns="http://www.w3.org/2000/svg" viewBox="0 0 25.94 23.12"><defs><style>.cls-1{fill:#fff;}</style></defs><title>Artboard 3new</title><circle class="cls-1" cx="2.74" cy="8.96" r="1.21"/><path class="cls-1" d="M4,10.73H1.41A1.44,1.44,0,0,0,0,12.18v3.55a.53.53,0,0,0,.52.52A.53.53,0,0,0,1,15.73V12.34a.11.11,0,0,1,.12-.12.11.11,0,0,1,.12.12V22.43a.69.69,0,0,0,1.37,0V16.38a.11.11,0,0,1,.12-.12.11.11,0,0,1,.12.12v6.05a.69.69,0,1,0,1.37,0V12.34a.12.12,0,0,1,.24,0v3.39a.52.52,0,0,0,1,0V12.18A1.57,1.57,0,0,0,4,10.73Z"/><circle class="cls-1" cx="23.08" cy="8.96" r="1.21"/><path class="cls-1" d="M24.41,10.73H21.78a1.43,1.43,0,0,0-1.41,1.41v3.55a.52.52,0,0,0,1,0V12.3a.12.12,0,0,1,.24,0V22.39a.69.69,0,0,0,1.37,0V16.34a.12.12,0,1,1,.24,0v6.05a.69.69,0,0,0,1.37,0V12.3a.12.12,0,1,1,.24,0v3.39a.52.52,0,1,0,1,0V12.18A1.64,1.64,0,0,0,24.41,10.73Z"/><circle class="cls-1" cx="9.52" cy="8.96" r="1.21"/><path class="cls-1" d="M10.85,10.73H8.23a1.43,1.43,0,0,0-1.41,1.41v3.55a.52.52,0,0,0,1,0V12.3a.12.12,0,0,1,.24,0V22.39a.69.69,0,0,0,1.37,0V16.34a.12.12,0,1,1,.24,0v6.05a.69.69,0,0,0,1.37,0V12.3a.12.12,0,1,1,.24,0v3.39a.52.52,0,1,0,1,0V12.18A1.64,1.64,0,0,0,10.85,10.73Z"/><circle class="cls-1" cx="16.3" cy="8.96" r="1.21"/><path class="cls-1" d="M17.63,10.73H15a1.43,1.43,0,0,0-1.41,1.41v3.55a.52.52,0,0,0,1,0V12.3a.12.12,0,0,1,.24,0V22.39a.68.68,0,0,0,.69.69.66.66,0,0,0,.69-.69V16.34a.12.12,0,0,1,.24,0v6.05a.69.69,0,0,0,1.37,0V12.3a.12.12,0,1,1,.24,0v3.39a.52.52,0,1,0,1,0V12.18A1.64,1.64,0,0,0,17.63,10.73Z"/><circle class="cls-1" cx="6.13" cy="6.37" r="1.21"/><circle class="cls-1" cx="12.91" cy="6.37" r="1.21"/><circle class="cls-1" cx="19.69" cy="6.37" r="1.21"/><circle class="cls-1" cx="9.52" cy="3.79" r="1.21"/><circle class="cls-1" cx="16.3" cy="3.79" r="1.21"/><circle class="cls-1" cx="12.91" cy="1.21" r="1.21"/></svg>