<svg id="Layer_1" data-name="Layer 1" xmlns="http://www.w3.org/2000/svg" viewBox="0 0 26.14 19.77"><defs><style>.cls-1{fill:none;}.cls-2{fill:#fff;}</style></defs><title>Artboard 4new</title><path class="cls-1" d="M1.43,14.33a1.43,1.43,0,0,0,1.43,1.43H3.2V7.88H1.43Z"/><path class="cls-1" d="M21.47,2.57a1.43,1.43,0,0,0-1.4-1.14H2.87A1.43,1.43,0,0,0,1.43,2.87V4.35h2A2.87,2.87,0,0,1,6.07,2.57Z"/><path class="cls-1" d="M4.63,5.44V6.92H24.7V5.44A1.43,1.43,0,0,0,23.27,4H6.07A1.43,1.43,0,0,0,4.63,5.44Z"/><path class="cls-1" d="M4.63,10.46v6.45a1.43,1.43,0,0,0,1.43,1.43h17.2a1.43,1.43,0,0,0,1.43-1.43V10.46H4.63ZM16,13.19a.49.49,0,0,1-.49.49H6.65a.49.49,0,0,1-.49-.49v-.45a.49.49,0,0,1,.49-.49h8.9a.49.49,0,0,1,.49.49v.45Zm2.92,0a.49.49,0,0,1-.49.49h-1a.49.49,0,0,1-.49-.49v-.45a.49.49,0,0,1,.49-.49h1a.49.49,0,0,1,.49.49Z"/><path class="cls-2" d="M18.48,12.25h-1a.49.49,0,0,0-.49.49v.45a.49.49,0,0,0,.49.49h1a.49.49,0,0,0,.49-.49v-.45A.49.49,0,0,0,18.48,12.25Z"/><path class="cls-2" d="M23.27,2.57h-.35A2.87,2.87,0,0,0,20.07,0H2.87A2.87,2.87,0,0,0,0,2.87V14.33A2.87,2.87,0,0,0,2.87,17.2h.35a2.87,2.87,0,0,0,2.85,2.57h17.2a2.87,2.87,0,0,0,2.87-2.87V5.44A2.87,2.87,0,0,0,23.27,2.57Zm0,1.43A1.43,1.43,0,0,1,24.7,5.44V6.92H4.63V5.44A1.43,1.43,0,0,1,6.07,4ZM3.2,15.77H2.87a1.43,1.43,0,0,1-1.43-1.43V7.88H3.2ZM3.42,4.35h-2V2.87A1.43,1.43,0,0,1,2.87,1.43h17.2a1.43,1.43,0,0,1,1.4,1.14H6.07A2.87,2.87,0,0,0,3.42,4.35Zm19.85,14H6.07a1.43,1.43,0,0,1-1.43-1.43V10.46H24.7v6.45A1.43,1.43,0,0,1,23.27,18.34Z"/><path class="cls-2" d="M15.55,12.25H6.65a.49.49,0,0,0-.49.49v.45a.49.49,0,0,0,.49.49h8.9a.49.49,0,0,0,.49-.49v-.45A.49.49,0,0,0,15.55,12.25Z"/></svg>