<svg id="Layer_1" data-name="Layer 1" xmlns="http://www.w3.org/2000/svg" viewBox="0 0 24.96 22.8"><defs><style>.cls-1{fill:#fff;}</style></defs><title>Artboard 2new</title><path class="cls-1" d="M24.83,5.68a.72.72,0,0,0-.59-.3H5.37L4.1.54A.72.72,0,0,0,3.41,0H.72a.72.72,0,0,0,0,1.44H2.85L6.93,17a.72.72,0,0,0,.69.54h13a.72.72,0,1,0,0-1.44H8.17l-.52-2h14a.72.72,0,0,0,.68-.48l2.55-7.3A.72.72,0,0,0,24.83,5.68Zm-3.65,7H7.28L5.74,6.81H23.23ZM9.87,18.12a2.34,2.34,0,1,0,2.34,2.34A2.34,2.34,0,0,0,9.87,18.12Zm0,3.24a.9.9,0,1,1,.9-.9A.9.9,0,0,1,9.87,21.36Zm7.52-3.24a2.34,2.34,0,1,0,2.34,2.34A2.34,2.34,0,0,0,17.39,18.12Zm0,3.24a.9.9,0,1,1,.9-.9A.9.9,0,0,1,17.39,21.36Z"/></svg>