<svg id="Layer_1" data-name="Layer 1" xmlns="http://www.w3.org/2000/svg" viewBox="0 0 18.58 18.58"><defs><style>.cls-1{fill:#fff;}.cls-2{fill:none;stroke:#fff;stroke-miterlimit:10;stroke-width:0.2px;}</style></defs><title>Artboard 2</title><path class="cls-1" d="M1.05,9.76H4a9.39,9.39,0,0,0,.86,3.43,8,8,0,0,0-1.59,1.69A8.22,8.22,0,0,1,1.05,9.76M3.3,3.63a11.71,11.71,0,0,0,1.5,1.49A10.29,10.29,0,0,0,4,8.82H1.05A8.22,8.22,0,0,1,3.3,3.63M14.9,8.82a10.34,10.34,0,0,0-.77-3.56,8,8,0,0,0,1.35-1.41,8.21,8.21,0,0,1,2,5ZM14,13.31a9.41,9.41,0,0,0,.92-3.56h2.63a8.21,8.21,0,0,1-2.06,5A11.45,11.45,0,0,0,14,13.31m-.45.85a10.67,10.67,0,0,1,1.27,1.26,8.23,8.23,0,0,1-3.92,2,14.26,14.26,0,0,0,2.64-3.22M9,12.55V17A13.45,13.45,0,0,1,6,13.49,6.34,6.34,0,0,1,9,12.55M9,9.76v1.85a7.24,7.24,0,0,0-3.35,1A8.39,8.39,0,0,1,4.9,9.76ZM9,6.9V8.82H4.9a9.3,9.3,0,0,1,.68-3.13A7.07,7.07,0,0,0,9,6.9M5.22,4.25A11,11,0,0,1,4,3,8.23,8.23,0,0,1,7.75,1.19,11,11,0,0,0,5.22,4.25M7.25,3A10.44,10.44,0,0,1,9,1.43V6A6.23,6.23,0,0,1,6,4.83,9.88,9.88,0,0,1,7.25,3M9.9,6V1.43A10.48,10.48,0,0,1,11.61,3a9.81,9.81,0,0,1,1.34,2,6.33,6.33,0,0,1-3,1m0,2.86V6.9a7.25,7.25,0,0,0,3.44-1.08,9.34,9.34,0,0,1,.63,3Zm0,2.79V9.76H14a8.43,8.43,0,0,1-.76,3,7,7,0,0,0-3.3-1.15m0,5.4V12.55a6.18,6.18,0,0,1,2.87,1A13.59,13.59,0,0,1,9.9,17M13.71,4.38A11,11,0,0,0,11.2,1.27a8.24,8.24,0,0,1,3.61,1.9,7,7,0,0,1-1.1,1.21M5.26,14A14.19,14.19,0,0,0,8,17.44a8.22,8.22,0,0,1-4.12-1.9A6.86,6.86,0,0,1,5.26,14M9.29.1a9.19,9.19,0,1,0,9.19,9.19A9.2,9.2,0,0,0,9.29.1"/><path class="cls-2" d="M1.05,9.76H4a9.39,9.39,0,0,0,.86,3.43,8,8,0,0,0-1.59,1.69A8.22,8.22,0,0,1,1.05,9.76ZM3.3,3.63a11.71,11.71,0,0,0,1.5,1.49A10.29,10.29,0,0,0,4,8.82H1.05A8.22,8.22,0,0,1,3.3,3.63ZM14.9,8.82a10.34,10.34,0,0,0-.77-3.56,8,8,0,0,0,1.35-1.41,8.21,8.21,0,0,1,2,5ZM14,13.31a9.41,9.41,0,0,0,.92-3.56h2.63a8.21,8.21,0,0,1-2.06,5A11.45,11.45,0,0,0,14,13.31Zm-.45.85a10.67,10.67,0,0,1,1.27,1.26,8.23,8.23,0,0,1-3.92,2A14.26,14.26,0,0,0,13.52,14.16ZM9,12.55V17A13.45,13.45,0,0,1,6,13.49,6.34,6.34,0,0,1,9,12.55ZM9,9.76v1.85a7.24,7.24,0,0,0-3.35,1A8.39,8.39,0,0,1,4.9,9.76ZM9,6.9V8.82H4.9a9.3,9.3,0,0,1,.68-3.13A7.07,7.07,0,0,0,9,6.9ZM5.22,4.25A11,11,0,0,1,4,3,8.23,8.23,0,0,1,7.75,1.19,11,11,0,0,0,5.22,4.25ZM7.25,3A10.44,10.44,0,0,1,9,1.43V6A6.23,6.23,0,0,1,6,4.83,9.88,9.88,0,0,1,7.25,3ZM9.9,6V1.43A10.48,10.48,0,0,1,11.61,3a9.81,9.81,0,0,1,1.34,2A6.33,6.33,0,0,1,9.9,6Zm0,2.86V6.9a7.25,7.25,0,0,0,3.44-1.08,9.34,9.34,0,0,1,.63,3Zm0,2.79V9.76H14a8.43,8.43,0,0,1-.76,3A7,7,0,0,0,9.9,11.61Zm0,5.4V12.55a6.18,6.18,0,0,1,2.87,1A13.59,13.59,0,0,1,9.9,17ZM13.71,4.38A11,11,0,0,0,11.2,1.27a8.24,8.24,0,0,1,3.61,1.9A7,7,0,0,1,13.71,4.38ZM5.26,14A14.19,14.19,0,0,0,8,17.44a8.22,8.22,0,0,1-4.12-1.9A6.86,6.86,0,0,1,5.26,14ZM9.29.1a9.19,9.19,0,1,0,9.19,9.19A9.2,9.2,0,0,0,9.29.1Z"/></svg>