<svg id="Layer_1" data-name="Layer 1" xmlns="http://www.w3.org/2000/svg" viewBox="0 0 20.55 15.6"><defs><style>.cls-1{fill:#fff;}</style></defs><title>Artboard 3</title><path class="cls-1" d="M20.1,4.63H18.6a.44.44,0,0,0-.31.13L18,5.08A16.79,16.79,0,0,0,15.6,1.14,2.92,2.92,0,0,0,13.29,0h-6A2.92,2.92,0,0,0,5,1.14,16.45,16.45,0,0,0,2.58,5.07l-.32-.32A.44.44,0,0,0,2,4.63H.45A.45.45,0,0,0,0,5.09V6.16a.46.46,0,0,0,.42.46L2,6.73A10.7,10.7,0,0,0,1.55,10a4.31,4.31,0,0,0,.68,2.71v2.5a.38.38,0,0,0,.37.39H4.32a.38.38,0,0,0,.37-.39V13.66H15.86v1.55a.38.38,0,0,0,.37.39h1.71a.38.38,0,0,0,.37-.39v-2.5A4.31,4.31,0,0,0,19,10a10.7,10.7,0,0,0-.42-3.27l1.55-.1a.46.46,0,0,0,.42-.46V5.09a.46.46,0,0,0-.45-.46M6.23,2.22a1.31,1.31,0,0,1,1-.51h6a1.31,1.31,0,0,1,1,.51,16.19,16.19,0,0,1,1.76,2.73H4.45A16.27,16.27,0,0,1,6.23,2.22M5,11.76c-.85,0-1.55-.29-1.55-1s.25-1.28,1.1-1.28,2,.57,2,1.28-.69,1-1.55,1m6.94-.15H8.65a.91.91,0,0,1-.88-.92A.25.25,0,0,1,8,10.43h4.51a.25.25,0,0,1,.25.26.91.91,0,0,1-.89.92m3.7.15c-.85,0-1.55-.29-1.55-1s1.13-1.28,2-1.28,1.1.57,1.1,1.28-.69,1-1.55,1"/></svg>