<?xml version="1.0" encoding="utf-8"?>
<!-- Generator: Adobe Illustrator 21.0.2, SVG Export Plug-In . SVG Version: 6.00 Build 0)  -->
<svg version="1.1" id="Layer_1" xmlns="http://www.w3.org/2000/svg" xmlns:xlink="http://www.w3.org/1999/xlink" x="0px" y="0px"
	 viewBox="0 0 26.1 19.8" style="enable-background:new 0 0 26.1 19.8;" xml:space="preserve">
<style type="text/css">
	.st0{fill:#FFFFFF;}
	.st1{fill:none;}
</style>
<title>Artboard 4</title>
<g>
	<g>
		<circle class="st0" cx="-31" cy="5.2" r="1.2"/>
		<path class="st0" d="M-29.7,6.9h-2.6c-0.8,0-1.4,0.6-1.4,1.5v3.6c0,0.3,0.2,0.5,0.5,0.5c0.3,0,0.5-0.2,0.5-0.5V8.6
			c0-0.1,0-0.1,0.1-0.1s0.1,0,0.1,0.1v10.1c0,0.4,0.3,0.7,0.7,0.7c0.4,0,0.7-0.3,0.7-0.7v-6.1c0-0.1,0-0.1,0.1-0.1
			c0.1,0,0.1,0,0.1,0.1v6.1c0,0.4,0.3,0.7,0.7,0.7c0.4,0,0.7-0.3,0.7-0.7V8.6c0-0.1,0-0.1,0.1-0.1c0.1,0,0.1,0,0.1,0.1v3.4
			c0,0.3,0.2,0.5,0.5,0.5c0.3,0,0.5-0.2,0.5-0.5V8.4C-28.3,7.6-28.9,6.9-29.7,6.9z"/>
		<circle class="st0" cx="-10.7" cy="5.2" r="1.2"/>
		<path class="st0" d="M-9.3,6.9H-12c-0.8,0-1.4,0.6-1.4,1.4v3.6c0,0.3,0.2,0.5,0.5,0.5c0.3,0,0.5-0.2,0.5-0.5V8.5
			c0-0.1,0-0.1,0.1-0.1c0.1,0,0.1,0,0.1,0.1v10.1c0,0.4,0.3,0.7,0.7,0.7c0.4,0,0.7-0.3,0.7-0.7v-6.1c0-0.1,0-0.1,0.1-0.1
			c0.1,0,0.1,0,0.1,0.1v6.1c0,0.4,0.3,0.7,0.7,0.7c0.4,0,0.7-0.3,0.7-0.7V8.5c0-0.1,0-0.1,0.1-0.1c0.1,0,0.1,0,0.1,0.1v3.4
			c0,0.3,0.2,0.5,0.5,0.5c0.3,0,0.5-0.2,0.5-0.5V8.4C-7.9,7.6-8.6,6.9-9.3,6.9z"/>
		<circle class="st0" cx="-24.2" cy="5.2" r="1.2"/>
		<path class="st0" d="M-22.9,6.9h-2.6c-0.8,0-1.4,0.6-1.4,1.4v3.6c0,0.3,0.2,0.5,0.5,0.5c0.3,0,0.5-0.2,0.5-0.5V8.5
			c0-0.1,0-0.1,0.1-0.1s0.1,0,0.1,0.1v10.1c0,0.4,0.3,0.7,0.7,0.7c0.4,0,0.7-0.3,0.7-0.7v-6.1c0-0.1,0-0.1,0.1-0.1
			c0.1,0,0.1,0,0.1,0.1v6.1c0,0.4,0.3,0.7,0.7,0.7c0.4,0,0.7-0.3,0.7-0.7V8.5c0-0.1,0-0.1,0.1-0.1c0.1,0,0.1,0,0.1,0.1v3.4
			c0,0.3,0.2,0.5,0.5,0.5s0.5-0.2,0.5-0.5V8.4C-21.5,7.6-22.1,6.9-22.9,6.9z"/>
		<circle class="st0" cx="-17.5" cy="5.2" r="1.2"/>
		<path class="st0" d="M-16.1,6.9h-2.6c-0.8,0-1.4,0.6-1.4,1.4v3.6c0,0.3,0.2,0.5,0.5,0.5c0.3,0,0.5-0.2,0.5-0.5V8.5
			c0-0.1,0-0.1,0.1-0.1c0.1,0,0.1,0,0.1,0.1v10.1c0,0.4,0.3,0.7,0.7,0.7s0.7-0.3,0.7-0.7v-6.1c0-0.1,0-0.1,0.1-0.1
			c0.1,0,0.1,0,0.1,0.1v6.1c0,0.4,0.3,0.7,0.7,0.7c0.4,0,0.7-0.3,0.7-0.7V8.5c0-0.1,0-0.1,0.1-0.1c0.1,0,0.1,0,0.1,0.1v3.4
			c0,0.3,0.2,0.5,0.5,0.5c0.3,0,0.5-0.2,0.5-0.5V8.4C-14.7,7.6-15.4,6.9-16.1,6.9z"/>
		<circle class="st0" cx="-27.6" cy="2.6" r="1.2"/>
		<circle class="st0" cx="-20.8" cy="2.6" r="1.2"/>
		<circle class="st0" cx="-14.1" cy="2.6" r="1.2"/>
		<circle class="st0" cx="-24.2" cy="0" r="1.2"/>
		<circle class="st0" cx="-17.5" cy="0" r="1.2"/>
		<circle class="st0" cx="-20.8" cy="-2.6" r="1.2"/>
	</g>
</g>
<g>
	<path class="st0" d="M-58,2.8c-0.1-0.2-0.4-0.3-0.6-0.3h-18.9l-1.3-4.8c-0.1-0.3-0.4-0.5-0.7-0.5h-2.7c-0.4,0-0.7,0.3-0.7,0.7
		s0.3,0.7,0.7,0.7h2.1l4.1,15.6c0.1,0.3,0.4,0.5,0.7,0.5h13c0.4,0,0.7-0.3,0.7-0.7c0-0.4-0.3-0.7-0.7-0.7h-12.5l-0.5-2h14
		c0.3,0,0.6-0.2,0.7-0.5l2.6-7.3C-57.8,3.3-57.9,3-58,2.8z M-61.7,9.8h-13.9L-77.1,4h17.5L-61.7,9.8z M-73,15.3
		c-1.3,0-2.3,1-2.3,2.3c0,1.3,1,2.3,2.3,2.3c1.3,0,2.3-1,2.3-2.3C-70.6,16.3-71.7,15.3-73,15.3z M-73,18.5c-0.5,0-0.9-0.4-0.9-0.9
		s0.4-0.9,0.9-0.9c0.5,0,0.9,0.4,0.9,0.9S-72.5,18.5-73,18.5z M-65.5,15.3c-1.3,0-2.3,1-2.3,2.3c0,1.3,1,2.3,2.3,2.3
		c1.3,0,2.3-1,2.3-2.3C-63.1,16.3-64.2,15.3-65.5,15.3z M-65.5,18.5c-0.5,0-0.9-0.4-0.9-0.9s0.4-0.9,0.9-0.9c0.5,0,0.9,0.4,0.9,0.9
		S-65,18.5-65.5,18.5z"/>
</g>
<g>
	<g>
		<path class="st1" d="M1.4,14.3c0,0.8,0.6,1.4,1.4,1.4h0.3V7.9H1.4V14.3z"/>
		<path class="st1" d="M21.5,2.6c-0.1-0.7-0.7-1.1-1.4-1.1l-17.2,0c-0.8,0-1.4,0.6-1.4,1.4v1.5h2c0.4-1,1.5-1.8,2.6-1.8
			C6.1,2.6,21.5,2.6,21.5,2.6z"/>
		<path class="st1" d="M4.6,5.4v1.5h20.1V5.4c0-0.8-0.6-1.4-1.4-1.4L6.1,4C5.3,4,4.6,4.6,4.6,5.4z"/>
		<path class="st1" d="M4.6,10.5v6.5c0,0.8,0.6,1.4,1.4,1.4h17.2c0.8,0,1.4-0.6,1.4-1.4l0-6.4L4.6,10.5L4.6,10.5z M16,13.2
			c0,0.3-0.2,0.5-0.5,0.5H6.7c-0.3,0-0.5-0.2-0.5-0.5v-0.4c0-0.3,0.2-0.5,0.5-0.5h8.9c0.3,0,0.5,0.2,0.5,0.5L16,13.2L16,13.2z
			 M19,13.2c0,0.3-0.2,0.5-0.5,0.5h-1c-0.3,0-0.5-0.2-0.5-0.5v-0.4c0-0.3,0.2-0.5,0.5-0.5h1c0.3,0,0.5,0.2,0.5,0.5V13.2z"/>
		<path class="st0" d="M18.5,12.2h-1c-0.3,0-0.5,0.2-0.5,0.5v0.4c0,0.3,0.2,0.5,0.5,0.5h1c0.3,0,0.5-0.2,0.5-0.5v-0.4
			C19,12.5,18.7,12.2,18.5,12.2z"/>
		<path class="st0" d="M23.3,2.6h-0.3C22.8,1.1,21.6,0,20.1,0H2.9C1.3,0,0,1.3,0,2.9v11.5c0,1.6,1.3,2.9,2.9,2.9h0.3
			c0.1,1.4,1.4,2.6,2.9,2.6l17.2,0c1.6,0,2.9-1.3,2.9-2.9V5.4C26.1,3.9,24.9,2.6,23.3,2.6z M23.3,4c0.8,0,1.4,0.6,1.4,1.4v1.5H4.6
			V5.4C4.6,4.6,5.3,4,6.1,4L23.3,4z M3.2,15.8H2.9c-0.8,0-1.4-0.6-1.4-1.4V7.9h1.8V15.8z M3.4,4.3h-2V2.9c0-0.8,0.6-1.4,1.4-1.4
			l17.2,0c0.7,0,1.3,0.5,1.4,1.1H6.1C4.9,2.6,3.8,3.3,3.4,4.3z M23.3,18.3H6.1c-0.8,0-1.4-0.6-1.4-1.4v-6.5h20.1l0,6.4
			C24.7,17.7,24.1,18.3,23.3,18.3z"/>
		<path class="st0" d="M15.6,12.2H6.7c-0.3,0-0.5,0.2-0.5,0.5v0.4c0,0.3,0.2,0.5,0.5,0.5h8.9c0.3,0,0.5-0.2,0.5-0.5v-0.4
			C16,12.5,15.8,12.2,15.6,12.2z"/>
	</g>
</g>
</svg>
