<?xml version="1.0" encoding="utf-8"?>
<!-- Generator: Adobe Illustrator 21.0.2, SVG Export Plug-In . SVG Version: 6.00 Build 0)  -->
<svg version="1.1" id="Layer_1" xmlns="http://www.w3.org/2000/svg" xmlns:xlink="http://www.w3.org/1999/xlink" x="0px" y="0px"
	 viewBox="0 0 12.5 22.8" style="enable-background:new 0 0 12.5 22.8;" xml:space="preserve">
<style type="text/css">
	.st0{fill:#FFFFFF;}
</style>
<title>Artboard 4</title>
<path class="st0" d="M10.9,0H1.6C0.7,0,0,0.8,0,1.7v19.5c0,0.9,0.7,1.6,1.6,1.7c0,0,0,0,0,0h9.3c0.9,0,1.6-0.8,1.6-1.7V1.7
	C12.5,0.8,11.8,0,10.9,0 M4,1h4.6c0.1,0,0.2,0.2,0.2,0.4S8.7,1.8,8.6,1.8H4c-0.1,0-0.2-0.2-0.2-0.4S3.8,1,4,1 M6.3,21.1
	c-0.6,0-1.1-0.4-1.1-1c0-0.6,0.4-1.1,1-1.1s1.1,0.4,1.1,1c0,0,0,0,0,0.1C7.3,20.6,6.9,21.1,6.3,21.1C6.3,21.1,6.3,21.2,6.3,21.1
	 M11.4,17.5H1.2V2.8h10.1L11.4,17.5z"/>
<path class="st0" d="M56.6-0.8h-9.3c-0.9,0-1.6,0.8-1.6,1.7v19.5c0,0.9,0.7,1.6,1.6,1.7c0,0,0,0,0,0h9.3c0.9,0,1.6-0.8,1.6-1.7V0.9
	C58.3,0,57.5-0.8,56.6-0.8 M49.7,0.2h4.6c0.1,0,0.2,0.2,0.2,0.4S54.4,1,54.3,1h-4.6c-0.1,0-0.2-0.2-0.2-0.4S49.6,0.2,49.7,0.2
	 M52,20.4c-0.6,0-1.1-0.4-1.1-1c0-0.6,0.4-1.1,1-1.1s1.1,0.4,1.1,1c0,0,0,0,0,0.1C53.1,19.9,52.6,20.3,52,20.4
	C52.1,20.4,52.1,20.4,52,20.4 M57.1,16.7H46.9V2h10.1L57.1,16.7z"/>
</svg>
